<?xml version="1.0" encoding="UTF-8"?>
<svg id="Layer_1" xmlns="http://www.w3.org/2000/svg" version="1.1" viewBox="0 0 462.34 463.65">
  <!-- Generator: Adobe Illustrator 30.1.0, SVG Export Plug-In . SVG Version: 2.1.1 Build 136)  -->
  <path d="M335.13,33.47c3.69-.22,11.07-.37,14.52,1.48,42.55,22.86,123.76,88.51,39,120.36-18.04,6.78-40.15,16.29-58.55,24.42-14.98,5.98-49.14,24.46-62.45,21.1-21.38-5.4,2.49-48.6,6.86-59.13,10.97-26.5,22.15-52.91,33.53-79.23,7.57-17.08,9.87-22.37,27.09-29Z"/>
  <path d="M222.6,276.53c5.52.1,10.39-.02,14.78,3.72,9.71,8.26,51.37,116.21,57.45,134.73,1.95,5.93,3.3,11.87,3.82,18.1.47,5.68-2.88,10.25-6.5,14.33-13.99,15.79-38.09,14.87-57.41,15.89-20.94,1.27-79.14.68-72.93-31.07,5.62-28.73,44.82-137.89,60.79-155.71Z"/>
  <path d="M419.32,164.76c28.45-2.04,39.18,14.09,41.52,40.49,10.5,118.25-35.1,94.16-115.77,64.38-16.01-7.4-40.64-12.84-55.08-21.22-47.19-27.42,36.3-48.78,54.27-56,23.59-9.47,51.93-21.49,75.05-27.64Z"/>
  <path d="M263.82,260.43c.26-.03.52-.06.78-.08,19.2-1.77,129.52,44.81,146.2,58.77,6.12,5.13,13.11,12.64,13.66,21.01,1.32,19.97-21.34,42.32-33.87,56.2-12.42,12.04-26.75,28.96-45.25,29.85-6.06.29-14.43-.88-19.01-5.2-4.73-4.45-8.62-10.29-11.78-15.94-9.69-17.35-58.02-117.65-57.95-131.1.03-6.09,3.08-9.4,7.21-13.5Z"/>
  <path d="M212.5,1.39c26.28-1.78,83.86-7.53,85.26,30.26.45,12.19-5.42,25.52-10.25,36.6-15.49,35.51-29.1,72.16-45.4,107.27-12.32,17.88-25.7,1.92-30.95-11.89-14.05-36.91-29.71-73.29-43.74-110.21C152.93,15.31,179.04,3.48,212.5,1.39Z"/>
  <path d="M116.78,39.51c18.44-.68,22.39,5.03,30.04,20.71,11.48,24.54,22.98,46.88,34.15,71.83,5.37,12.01,25.06,47.99,22.04,60.03-3.76,15.05-24.37,10.29-34.53,5.47-6.05-2.87-16.42-6.44-23.89-9.45-27.52-10.44-61.55-22.4-87.61-35.15-52.76-25.81,29.89-106.54,59.8-113.45Z"/>
  <path d="M184.57,258.95c5.02.14,9.52,1.12,13.38,4.59,2.68,2.41,3.98,5.4,4.09,8.99.39,13.13-56.48,134.03-67.02,145.44-4.84,5.23-14.31,9.45-21.43,9.62-13.77.32-25.57-12.71-34.73-21.36-20.81-20.47-67.83-66-23.97-89.89,40.88-22.27,87.01-37.94,129.68-57.39Z"/>
  <path d="M24.73,167.7c22.56-2.06,96.91,28.42,123.4,37.99,76.45,27.63,9.47,48.23-21.78,60.71C39.98,302.64-14.84,330.2,3.55,201.63c2.25-15.73,7.26-26.11,21.18-33.93Z"/>
</svg>
